PathFileType	4	(X/Y/Z)	Patient4_TMGait_0pt4_03_left_37.trc.trc
DataRate	CameraRate	NumFrames	NumMarkers	Units	OrigDataRate	OrigDataStartFrame	OrigNumFrames
75.675675675676	75.675675675676	5	33	mm	75.675675675676	1	       141
Frame#	Time	Sacral			L.Shoulder			Chest			R.Shoulder			Neck			R.ASIS			L.ASIS			R.Thigh.Superior			R.Thigh.Lateral			R.Thigh.Inferior			R.Patella			L.Thigh.Superior			L.Thigh.Lateral			L.Thigh.Inferior			L.Patella			L.Shank.Superior			L.Shank.Lateral			L.Shank.Inferior			R.Shank.Superior			R.Shank.Lateral			R.Shank.Inferior			R.Heel			R.Midfoot.Superior			R.Midfoot.Lateral			R.Toe			L.Heel			L.Midfoot.Lateral			L.Midfoot.Superior			L.Toe			L.Elbow			L.Wrist			R.Elbow			R.Wrist			
		X1	Y1	Z1	X2	Y2	Z2	X3	Y3	Z3	X4	Y4	Z4	X5	Y5	Z5	X6	Y6	Z6	X7	Y7	Z7	X8	Y8	Z8	X9	Y9	Z9	X10	Y10	Z10	X11	Y11	Z11	X12	Y12	Z12	X13	Y13	Z13	X14	Y14	Z14	X15	Y15	Z15	X16	Y16	Z16	X17	Y17	Z17	X18	Y18	Z18	X19	Y19	Z19	X20	Y20	Z20	X21	Y21	Z21	X22	Y22	Z22	X23	Y23	Z23	X24	Y24	Z24	X25	Y25	Z25	X26	Y26	Z26	X27	Y27	Z27	X28	Y28	Z28	X29	Y29	Z29	X30	Y30	Z30	X31	Y31	Z31	X32	Y32	Z32	X33	Y33	Z33	

1	49.050000000000	868.024881068321	1003.715832369831	536.677753054298	1015.819913620875	1439.918416464347	347.040280858422	1139.125917551392	1371.518501502869	493.738894928866	1074.012075211110	1438.166865759323	678.625405310138	1014.399991046548	1497.938863342353	505.901979037747	1108.744153531119	942.491122472526	627.197913845009	1063.352555559790	967.733906808725	357.589125827030	1139.251980626040	737.509322706998	591.598380046816	1058.535561975272	630.111269135784	658.818993181242	1125.408773212894	575.913284442796	571.855225026885	1120.702521371503	487.412781755473	577.526294721225	1149.369356403040	781.799580318153	372.783313410467	1097.256206615178	656.417078196027	295.264167471288	1207.771876962820	594.911992588164	342.872911267945	1220.743709305989	506.587107134230	332.400678596160	1155.540749488332	438.764721680570	329.324548748374	1011.106533424072	391.732915341392	294.075598654452	1010.956814395924	258.896497620032	343.102232934231	1087.398966461609	399.719253612532	586.935011684619	1014.130424636106	300.199869982719	651.640942860635	1045.529083724153	203.453795827823	585.906200229896	904.563181523235	43.148221441466	562.453018086523	1074.397781501020	96.357718114100	594.575641775117	988.115221441988	37.156840936204	635.473043036746	1196.109538050762	44.602190468107	620.696775924216	828.581439836896	187.625782438754	398.614229016621	877.744691826789	144.457871421086	311.298544277296	985.227303974016	153.500206881667	322.046820420646	1060.589412919787	42.829603801720	281.619759093215	940.986475273790	1096.080050808673	231.373041399415	1029.493404124272	850.895900470789	187.942631106203	1079.463169179084	1100.143317714781	819.877121301879	1258.812897125793	923.871006151185	756.116316810825	
2	49.063214285714	867.120065213846	1004.642856334500	539.210767114065	1014.896326095543	1440.019875720030	348.240780295602	1139.483725234112	1371.231854072466	493.663761248780	1076.796788814825	1438.394684902722	679.121050530021	1015.344041031479	1498.114104234429	506.968361704241	1108.468550398520	942.050918554028	627.247518552987	1060.615516317547	968.369187020591	358.190818783747	1136.780310110125	736.862352893323	591.472699875933	1055.656126522448	630.097011829441	659.241963406018	1121.376157723053	575.333364739826	571.969576991076	1116.044578663809	487.087812005754	577.758432828268	1147.759581244966	784.165731168132	372.841685530117	1096.856874352487	658.402819938660	295.300310642116	1207.974745781974	598.109634378819	342.711787875168	1222.288682560132	510.732802610224	331.694297508009	1159.943892718722	441.590581650339	328.299469684473	1018.039131646785	387.982128435868	294.311169139431	1025.151709017814	255.255572966025	341.790970002137	1082.593973506561	399.695011171993	587.281914595168	1009.177454643519	300.218199528649	652.025296195244	1040.287966774896	203.406587209406	586.102041891698	898.787802346753	43.125088928603	562.299500415749	1068.849769225810	96.315846707671	594.705953920116	982.511848026022	37.138033018836	635.503441273512	1190.515119046613	44.358112508987	620.781026089414	848.440114338107	173.846528509420	398.535878227320	898.402453469664	134.620675300918	310.137435275321	1004.813980343216	149.598480466943	319.843449999996	1085.409599966610	44.376180968936	277.093067525515	938.907578967126	1096.337366227211	232.715395423833	1024.707490329545	850.568869308464	187.882092691076	1083.248425594426	1100.191390029577	819.721282941967	1264.134835991467	928.234968425596	750.683911519072	
3	49.076428571429	866.215801371569	1005.546627714866	541.693049440842	1013.995730863719	1440.103526869035	349.408486432948	1139.847823811021	1370.916950677851	493.557457257342	1079.568427735359	1438.575267320159	679.583112120485	1016.307962714405	1498.264022775616	508.015577352318	1108.170902619959	941.600217289265	627.247998809262	1057.896141943679	968.977050153998	358.750646225926	1134.321905577609	736.218475714218	591.307634833638	1052.807674356415	630.070603554983	659.647723973406	1117.381151968437	574.755302598367	572.066039124513	1111.432123744783	486.755149866844	577.979620142627	1146.087833293963	786.430127636103	372.920650605574	1096.354359414767	660.286019550158	295.380800842628	1207.996862097750	601.150175266809	342.667735451169	1223.659222370312	514.767025452398	331.098555691746	1164.215086168974	444.331914750300	327.364097689436	1025.022459138648	384.105948848367	294.418459656838	1039.399196297101	251.597796186887	340.426717195160	1077.837340005682	399.656650662999	587.613557995333	1004.267732545377	300.232772380229	652.399449675058	1035.079413066119	203.359413549679	586.296128937642	893.062085450964	43.110968422700	562.164463105231	1063.336552866564	96.269934643178	594.829229767916	976.943881718546	37.120267684064	635.534575729044	1184.957124638115	44.115286328331	620.864982514863	868.457804147067	160.049085691738	398.163659829221	919.271876224435	124.847581171478	308.749522558066	1024.501854953760	145.771980931281	317.578681308396	1110.322486016246	46.134055683845	272.604047888897	936.854059377358	1096.573024726266	234.026326210158	1019.995050210383	850.237364976589	187.811963877787	1087.027475538104	1100.175795241196	819.510387719833	1269.402225937179	932.552573206742	745.195577720254	
4	49.089642857143	865.317938338122	1006.404271795364	544.058097105182	1013.153329338771	1440.153504742291	350.497718840332	1140.224609347646	1370.548537127060	493.389146294196	1082.297693326596	1438.667290039683	679.972460494447	1017.304885290469	1498.365763326286	509.010240240576	1107.831743639741	941.133336783695	627.164930562270	1055.229437382176	969.526962582108	359.227528541226	1131.894203757154	735.580216825129	591.081303816734	1050.012159693621	630.022659591713	660.017858777833	1113.460097599912	574.181305835751	572.132987474988	1106.908398973091	486.410878740815	578.182362418054	1144.291375654107	788.462330917293	373.032406167409	1095.626432637875	661.954988149199	295.523102431261	1207.650279043574	603.854320758087	342.814093901779	1224.654235784070	518.557156910242	330.708801740704	1168.192073498379	446.908740585637	326.588046861911	1032.071288280202	380.039011459434	294.281180838224	1053.682164998160	247.975294210683	338.970499841340	1073.168330811107	399.590290431332	587.913889874747	999.438795008979	300.241744489923	652.752475687015	1029.935485957317	203.311432258174	586.485308466919	887.429446783798	43.113448229911	562.061149740594	1057.889091464298	96.217157752815	594.938370223090	971.444208166689	37.104590718660	635.566299393527	1179.468581145894	43.876348052452	620.947659299375	888.716628057669	146.360177681494	397.260031849251	940.484632045264	115.295409436842	306.975731899714	1044.315762752621	142.151499476491	315.225928845698	1135.310427983547	48.320772039011	268.267949722698	934.854638240502	1096.771484665914	235.261387397876	1015.443354021485	849.903147430770	187.717200686626	1090.795901273528	1100.038649142508	819.171304848545	1274.568427096649	936.803240426134	739.585763735504	
5	49.102857142857	864.430280089385	1007.200506127457	546.249729393133	1012.402043984362	1440.158252573882	351.467673212655	1140.620301361706	1370.105896227184	493.133027461675	1084.960671933124	1438.638356434299	680.254597364812	1018.343234427962	1498.403791378090	509.915385783539	1107.436930637678	940.647993446655	626.972194930072	1052.645364080786	969.993703850649	359.587949581963	1129.503704809339	734.946747245923	590.784974280646	1047.275644307696	629.946904709869	660.339184158513	1109.631648543580	573.611475516539	572.164519228436	1102.496544820139	486.053367909088	578.364648370916	1142.310437059885	790.147017471690	373.186647270543	1094.556915720198	663.316362198816	295.730977539590	1206.764434376811	606.066595579294	343.199513833858	1225.093406515967	521.994866210773	330.603326653020	1171.735958502682	449.263222979079	326.028221511137	1039.218284187441	375.739575198656	293.790740771370	1068.003300846575	244.456530695603	337.395591095815	1068.604254248995	399.485191088391	588.171722654758	994.705016131976	300.243990808804	653.076355631776	1024.867999241399	203.260225796814	586.665583270572	881.904719734336	43.136544034127	561.996236495034	1052.514390038904	96.154778234323	595.027242671466	966.021754095989	37.091895416442	635.598264436523	1174.058906056367	43.643950276898	621.028498395783	909.319379319706	132.915716126531	395.623103887767	962.199742878140	106.118217469440	304.695355166916	1064.315434060826	138.871050578644	312.780105288578	1160.403770654068	51.144489871549	264.235362084978	932.929052840948	1096.924814092604	236.381006818091	1011.118631442677	849.571299810601	187.583106297675	1094.563598844875	1099.732701354725	818.633008873473	1279.614504018315	940.992781265024	733.777225402810	
